<?xml version="1.0" encoding="UTF-8" standalone="no"?>
<!DOCTYPE svg PUBLIC "-//W3C//DTD SVG 1.1//EN" "http://www.w3.org/Graphics/SVG/1.1/DTD/svg11.dtd">
<svg xmlns="http://www.w3.org/2000/svg" xmlns:xl="http://www.w3.org/1999/xlink" version="1.1" viewBox="0 0 432 270" width="36pc" height="270pt" xmlns:dc="http://purl.org/dc/elements/1.1/"><metadata> Produced by OmniGraffle 6.4.1 <dc:date>2015-12-10 23:52:36 +0000</dc:date></metadata><defs/><g stroke="none" stroke-opacity="1" stroke-dasharray="none" fill="none" fill-opacity="1"><title>Canvas 1</title><rect fill="white" width="432" height="270"/><g><title>Layer 1</title><path d="M 144 108 L 360 108 L 360 108" stroke="black" stroke-linecap="round" stroke-linejoin="round" stroke-width="1"/><path d="M 279 36 L 360 36 L 351 36" stroke="black" stroke-linecap="round" stroke-linejoin="round" stroke-width="1"/><line x1="72" y1="81" x2="279" y2="82" stroke="black" stroke-linecap="round" stroke-linejoin="round" stroke-width="1"/><line x1="244.98147" y1="81.83566" x2="245.57031" y2="108" stroke="black" stroke-linecap="round" stroke-linejoin="round" stroke-width="1"/><path d="M 72 180 L 153 180 L 144 180" stroke="black" stroke-linecap="round" stroke-linejoin="round" stroke-width="1"/><path d="M 72 252 L 153 252 L 144 252" stroke="black" stroke-linecap="round" stroke-linejoin="round" stroke-width="1"/><line x1="289.07422" y1="36" x2="288.94922" y2="108" stroke="black" stroke-linecap="round" stroke-linejoin="round" stroke-width="1"/><line x1="136.57168" y1="81.31194" x2="136.39844" y2="180" stroke="black" stroke-linecap="round" stroke-linejoin="round" stroke-width="1"/><line x1="126" y1="180" x2="126.16016" y2="252" stroke="black" stroke-linecap="round" stroke-linejoin="round" stroke-width="1"/><text transform="translate(293 53.276)" fill="black"/><text transform="translate(24.0625 206.276)" fill="black"/><text transform="translate(68 113.026)" fill="black"/><text transform="translate(365 94.59122)" fill="black"/><text transform="translate(365 22.852088)" fill="black"/><text transform="translate(2 67.982523)" fill="black"/><text transform="translate(14.6494565 166.54774)" fill="black"/><text transform="translate(16.019022 238.54774)" fill="black"/></g></g></svg>
