<?xml version="1.0" encoding="UTF-8" standalone="no"?>
<!DOCTYPE svg PUBLIC "-//W3C//DTD SVG 1.1//EN" "http://www.w3.org/Graphics/SVG/1.1/DTD/svg11.dtd">
<svg xmlns="http://www.w3.org/2000/svg" xmlns:xl="http://www.w3.org/1999/xlink" version="1.1" viewBox="0 0 630 72" width="630pt" height="6pc" xmlns:dc="http://purl.org/dc/elements/1.1/"><metadata> Produced by OmniGraffle 6.4.1 <dc:date>2015-12-11 08:54:34 +0000</dc:date></metadata><defs/><g stroke="none" stroke-opacity="1" stroke-dasharray="none" fill="none" fill-opacity="1"><title>Canvas 1</title><rect fill="white" width="630" height="72"/><g><title>Layer 1</title><rect x="9" y="9" width="18" height="18" fill="white"/><rect x="9" y="9" width="18" height="18" stroke="black" stroke-linecap="round" stroke-linejoin="round" stroke-width="1"/><rect x="27" y="9" width="18" height="18" fill="#a5a5a5"/><rect x="27" y="9" width="18" height="18" stroke="black" stroke-linecap="round" stroke-linejoin="round" stroke-width="1"/><rect x="45" y="9" width="18" height="18" fill="white"/><rect x="45" y="9" width="18" height="18" stroke="black" stroke-linecap="round" stroke-linejoin="round" stroke-width="1"/><rect x="63" y="9" width="18" height="18" fill="white"/><rect x="63" y="9" width="18" height="18" stroke="black" stroke-linecap="round" stroke-linejoin="round" stroke-width="1"/><rect x="81" y="9" width="18" height="18" fill="white"/><rect x="81" y="9" width="18" height="18" stroke="black" stroke-linecap="round" stroke-linejoin="round" stroke-width="1"/><rect x="99" y="9" width="18" height="18" fill="#a5a5a5"/><rect x="99" y="9" width="18" height="18" stroke="black" stroke-linecap="round" stroke-linejoin="round" stroke-width="1"/><rect x="117" y="9" width="18" height="18" fill="white"/><rect x="117" y="9" width="18" height="18" stroke="black" stroke-linecap="round" stroke-linejoin="round" stroke-width="1"/><rect x="135" y="9" width="18" height="18" fill="white"/><rect x="135" y="9" width="18" height="18" stroke="black" stroke-linecap="round" stroke-linejoin="round" stroke-width="1"/><rect x="153" y="9" width="18" height="18" fill="white"/><rect x="153" y="9" width="18" height="18" stroke="black" stroke-linecap="round" stroke-linejoin="round" stroke-width="1"/><rect x="171" y="9" width="126" height="18" fill="white"/><rect x="171" y="9" width="126" height="18" stroke="black" stroke-linecap="round" stroke-linejoin="round" stroke-width="1"/><text transform="translate(176 7.026001)" fill="black"/><rect x="297" y="9" width="18" height="18" fill="white"/><rect x="297" y="9" width="18" height="18" stroke="black" stroke-linecap="round" stroke-linejoin="round" stroke-width="1"/><rect x="315" y="9" width="18" height="18" fill="white"/><rect x="315" y="9" width="18" height="18" stroke="black" stroke-linecap="round" stroke-linejoin="round" stroke-width="1"/><rect x="333" y="9" width="18" height="18" fill="#a5a5a5"/><rect x="333" y="9" width="18" height="18" stroke="black" stroke-linecap="round" stroke-linejoin="round" stroke-width="1"/><rect x="351" y="9" width="18" height="18" fill="white"/><rect x="351" y="9" width="18" height="18" stroke="black" stroke-linecap="round" stroke-linejoin="round" stroke-width="1"/><rect x="549" y="9" width="54" height="18" fill="#a5a5a5"/><rect x="549" y="9" width="54" height="18" stroke="black" stroke-linecap="round" stroke-linejoin="round" stroke-width="1"/><text transform="translate(554 7.026001)" fill="black"/><rect x="603" y="9" width="18" height="18" fill="#a5a5a5"/><rect x="603" y="9" width="18" height="18" stroke="black" stroke-linecap="round" stroke-linejoin="round" stroke-width="1"/><rect x="9" y="45" width="18" height="18" fill="white"/><rect x="9" y="45" width="18" height="18" stroke="black" stroke-linecap="round" stroke-linejoin="round" stroke-width="1"/><rect x="27" y="45" width="18" height="18" fill="#a5a5a5"/><rect x="27" y="45" width="18" height="18" stroke="black" stroke-linecap="round" stroke-linejoin="round" stroke-width="1"/><rect x="45" y="45" width="18" height="18" fill="white"/><rect x="45" y="45" width="18" height="18" stroke="black" stroke-linecap="round" stroke-linejoin="round" stroke-width="1"/><rect x="63" y="45" width="18" height="18" fill="white"/><rect x="63" y="45" width="18" height="18" stroke="black" stroke-linecap="round" stroke-linejoin="round" stroke-width="1"/><rect x="81" y="45" width="18" height="18" fill="white"/><rect x="81" y="45" width="18" height="18" stroke="black" stroke-linecap="round" stroke-linejoin="round" stroke-width="1"/><rect x="99" y="45" width="18" height="18" fill="white"/><rect x="99" y="45" width="18" height="18" stroke="black" stroke-linecap="round" stroke-linejoin="round" stroke-width="1"/><rect x="117" y="45" width="18" height="18" fill="white"/><rect x="117" y="45" width="18" height="18" stroke="black" stroke-linecap="round" stroke-linejoin="round" stroke-width="1"/><rect x="135" y="45" width="18" height="18" fill="white"/><rect x="135" y="45" width="18" height="18" stroke="black" stroke-linecap="round" stroke-linejoin="round" stroke-width="1"/><rect x="153" y="45" width="18" height="18" fill="white"/><rect x="153" y="45" width="18" height="18" stroke="black" stroke-linecap="round" stroke-linejoin="round" stroke-width="1"/><rect x="171" y="45" width="126" height="18" fill="white"/><rect x="171" y="45" width="126" height="18" stroke="black" stroke-linecap="round" stroke-linejoin="round" stroke-width="1"/><text transform="translate(176 43.526)" fill="black"/><rect x="297" y="45" width="18" height="18" fill="white"/><rect x="297" y="45" width="18" height="18" stroke="black" stroke-linecap="round" stroke-linejoin="round" stroke-width="1"/><rect x="315" y="45" width="18" height="18" fill="white"/><rect x="315" y="45" width="18" height="18" stroke="black" stroke-linecap="round" stroke-linejoin="round" stroke-width="1"/><rect x="333" y="45" width="18" height="18" fill="#a5a5a5"/><rect x="333" y="45" width="18" height="18" stroke="black" stroke-linecap="round" stroke-linejoin="round" stroke-width="1"/><rect x="351" y="45" width="18" height="18" fill="white"/><rect x="351" y="45" width="18" height="18" stroke="black" stroke-linecap="round" stroke-linejoin="round" stroke-width="1"/><rect x="549" y="45" width="54" height="18" fill="#a5a5a5"/><rect x="549" y="45" width="54" height="18" stroke="black" stroke-linecap="round" stroke-linejoin="round" stroke-width="1"/><text transform="translate(554 43.026)" fill="black"/><rect x="603" y="45" width="18" height="18" fill="#a5a5a5"/><rect x="603" y="45" width="18" height="18" stroke="black" stroke-linecap="round" stroke-linejoin="round" stroke-width="1"/><rect x="369" y="9" width="18" height="18" fill="white"/><rect x="369" y="9" width="18" height="18" stroke="black" stroke-linecap="round" stroke-linejoin="round" stroke-width="1"/><rect x="387" y="9" width="18" height="18" fill="#a5a5a5"/><rect x="387" y="9" width="18" height="18" stroke="black" stroke-linecap="round" stroke-linejoin="round" stroke-width="1"/><rect x="405" y="9" width="18" height="18" fill="white"/><rect x="405" y="9" width="18" height="18" stroke="black" stroke-linecap="round" stroke-linejoin="round" stroke-width="1"/><rect x="423" y="9" width="18" height="18" fill="white"/><rect x="423" y="9" width="18" height="18" stroke="black" stroke-linecap="round" stroke-linejoin="round" stroke-width="1"/><rect x="441" y="9" width="18" height="18" fill="#a5a5a5"/><rect x="441" y="9" width="18" height="18" stroke="black" stroke-linecap="round" stroke-linejoin="round" stroke-width="1"/><rect x="459" y="9" width="18" height="18" fill="white"/><rect x="459" y="9" width="18" height="18" stroke="black" stroke-linecap="round" stroke-linejoin="round" stroke-width="1"/><rect x="369" y="45" width="18" height="18" fill="white"/><rect x="369" y="45" width="18" height="18" stroke="black" stroke-linecap="round" stroke-linejoin="round" stroke-width="1"/><rect x="387" y="45" width="18" height="18" fill="white"/><rect x="387" y="45" width="18" height="18" stroke="black" stroke-linecap="round" stroke-linejoin="round" stroke-width="1"/><rect x="405" y="45" width="18" height="18" fill="white"/><rect x="405" y="45" width="18" height="18" stroke="black" stroke-linecap="round" stroke-linejoin="round" stroke-width="1"/><rect x="423" y="45" width="18" height="18" fill="white"/><rect x="423" y="45" width="18" height="18" stroke="black" stroke-linecap="round" stroke-linejoin="round" stroke-width="1"/><rect x="441" y="45" width="18" height="18" fill="white"/><rect x="441" y="45" width="18" height="18" stroke="black" stroke-linecap="round" stroke-linejoin="round" stroke-width="1"/><rect x="459" y="45" width="18" height="18" fill="white"/><rect x="459" y="45" width="18" height="18" stroke="black" stroke-linecap="round" stroke-linejoin="round" stroke-width="1"/><rect x="531" y="9" width="18" height="18" fill="#a5a5a5"/><rect x="531" y="9" width="18" height="18" stroke="black" stroke-linecap="round" stroke-linejoin="round" stroke-width="1"/><rect x="531" y="45" width="18" height="18" fill="#a5a5a5"/><rect x="531" y="45" width="18" height="18" stroke="black" stroke-linecap="round" stroke-linejoin="round" stroke-width="1"/></g></g></svg>
